PathFileType	4	(X/Y/Z)	Patient4_TMGait_0pt7_02_right_12.trc.trc
DataRate	CameraRate	NumFrames	NumMarkers	Units	OrigDataRate	OrigDataStartFrame	OrigNumFrames
86.956521739130	86.956521739130	4	33	mm	86.956521739130	53	       141
Frame#	Time	Sacral			L.Shoulder			Chest			R.Shoulder			Neck			R.ASIS			L.ASIS			R.Thigh.Superior			R.Thigh.Lateral			R.Thigh.Inferior			R.Patella			L.Thigh.Superior			L.Thigh.Lateral			L.Thigh.Inferior			L.Patella			L.Shank.Superior			L.Shank.Lateral			L.Shank.Inferior			R.Shank.Superior			R.Shank.Lateral			R.Shank.Inferior			R.Heel			R.Midfoot.Superior			R.Midfoot.Lateral			R.Toe			L.Heel			L.Midfoot.Lateral			L.Midfoot.Superior			L.Toe			L.Elbow			L.Wrist			R.Elbow			R.Wrist			
		X1	Y1	Z1	X2	Y2	Z2	X3	Y3	Z3	X4	Y4	Z4	X5	Y5	Z5	X6	Y6	Z6	X7	Y7	Z7	X8	Y8	Z8	X9	Y9	Z9	X10	Y10	Z10	X11	Y11	Z11	X12	Y12	Z12	X13	Y13	Z13	X14	Y14	Z14	X15	Y15	Z15	X16	Y16	Z16	X17	Y17	Z17	X18	Y18	Z18	X19	Y19	Z19	X20	Y20	Z20	X21	Y21	Z21	X22	Y22	Z22	X23	Y23	Z23	X24	Y24	Z24	X25	Y25	Z25	X26	Y26	Z26	X27	Y27	Z27	X28	Y28	Z28	X29	Y29	Z29	X30	Y30	Z30	X31	Y31	Z31	X32	Y32	Z32	X33	Y33	Z33	

53	13.418000000000	766.417880955426	1015.243152472693	522.836136070685	942.737129570742	1438.542758379489	335.658805429209	1060.753649377522	1360.789807632685	483.693043190898	1000.283253923367	1438.723738285092	665.554672544269	965.349129541264	1496.958677673235	489.523208270279	996.417641443091	945.267738196700	627.035750724754	967.997483743706	964.640137613082	354.371545550696	1023.422376216837	742.575184071368	599.616717770752	935.635363515860	635.932650118678	657.068365782500	1012.173462194175	582.025996792242	578.365799515400	1007.108343796763	494.468303436479	583.374183387905	1054.149999231451	793.504805187415	366.757380322835	1008.905429225308	666.879427507979	285.215576738543	1121.697348523600	609.333233323054	332.854674654663	1141.776337012667	524.037778624300	321.841588843602	1088.315352923311	449.598484090934	321.818982587407	957.116276754130	377.379666723911	280.853162876370	976.080278851006	249.645393042330	337.334004971117	977.301791903248	406.554358487786	586.077206725211	899.370723112624	303.360304158424	640.842554440260	944.279290840971	209.066923441178	577.379963684625	807.720273602682	45.320251268224	536.419817574428	980.372557447522	97.686192251385	576.265313366040	890.057899490454	37.476421174323	611.263209528964	1098.582654135003	40.808541663349	605.187734227321	808.073237235206	139.557569311630	385.784760776014	868.982942027649	114.099303998530	299.398680679709	969.961546630710	148.223394775219	315.195824261834	1071.293229751108	62.095025977854	274.950961739941	841.663111065340	1097.206390401642	238.282923995396	869.815507455514	837.540907187774	217.560731782736	1033.007333486473	1089.098924206312	785.012887516029	1207.963149431293	895.363548911586	766.653752827914	
54	13.429500000000	764.901215455247	1014.682715724468	522.867451023272	941.083662218483	1437.696357933566	335.938401553887	1059.745507262505	1359.777736200930	483.368294513675	1000.214090721369	1437.587224729873	665.649125611316	964.464957837230	1496.032403105901	489.850417664418	995.065812032708	944.307981117713	626.746383774780	966.486501192776	963.928250372982	354.055092495721	1019.674448323793	741.000543887543	598.430552707485	931.342573213695	635.070960246990	656.535761481780	1006.465630024389	580.547956642108	577.203256262351	1000.583896431867	493.195992455943	582.076811730327	1053.445196740213	794.471549577790	366.848988075231	1010.197062864460	667.541844801764	284.515681717944	1123.091525873653	611.232879262553	332.908670303601	1144.831831064790	527.294816522772	321.825796247083	1094.602456383145	451.761552880985	321.196513147040	967.447736043278	373.427436502178	278.859840408542	992.509806113572	246.245278981427	334.822807498938	970.558985956417	405.379870332192	584.988152273524	892.599470408871	302.476502841403	640.269404743968	936.608336016539	208.050410220383	576.430492124327	799.493001548860	44.443044400459	536.231170547502	971.857881504574	97.451672811196	575.858783004900	881.762387318926	37.302165837189	611.236206718650	1090.330428493645	40.946700477322	605.146876515356	830.010065979461	127.831341647138	381.514727618974	892.708545488084	105.607873173049	295.554208859483	991.823218901754	144.423943259820	312.271170615613	1097.496187313127	63.188822582497	272.642481274637	832.559263733196	1098.863241094864	238.628613625944	846.956226820994	838.621388990884	217.113324100221	1043.073042370600	1089.365668214990	785.155057880679	1229.450557582361	907.327271634939	762.439703968589	
55	13.441000000000	763.390333685025	1014.051530868226	522.757508767180	939.493527075851	1436.795922108281	336.062026237581	1058.798881903573	1358.651641746043	482.866943240136	1000.240369697012	1436.354100002225	665.574706636982	963.665761255094	1495.024108938843	490.018833491983	993.736806473592	943.354475352924	626.376657614990	964.986718540201	963.055174359917	353.626419706640	1016.084808851516	739.477781657324	597.160988433874	927.348081776513	634.228294318222	655.973462134008	1001.001501631305	579.137993818784	575.943001771835	994.337997528452	491.946799063408	580.720360131132	1052.460966734549	794.977752741870	367.103903390147	1011.031214242441	667.793943814076	284.034558475258	1123.882114579739	612.562585894592	333.318618960908	1147.196551022238	530.122163127243	322.256998470648	1100.280044878094	453.742106386596	320.896790952057	977.659469415249	369.412937675031	276.987482012953	1008.887465714752	243.113672339388	332.437313264117	964.056002757024	404.244662492889	583.880259647856	886.119024961897	301.643243403664	639.769705374881	929.078082212743	207.082100651705	575.491695792677	791.292258454799	43.719127140761	536.085736723698	963.391613317459	97.211424139745	575.479584549380	873.496981478671	37.160370248751	611.243323209196	1082.102553731939	41.029521223973	605.105772141929	852.434780445221	116.511467923175	377.133337148259	916.897597094023	97.686550921795	291.699250144172	1013.831182134468	141.149691278324	309.493758182318	1123.679059528272	65.083635677445	270.666790837890	823.522750156551	1100.713607159880	238.730456906171	825.329305408330	840.626261117366	216.917268394040	1052.643743208085	1089.869753522335	785.097436955498	1249.847599578440	920.632033309857	757.526061427707	
56	13.452500000000	761.912513079855	1013.404462069663	522.538237575127	937.995322982766	1435.900906502536	336.009644791127	1057.923206316267	1357.468905000187	482.178102332792	1000.370894790627	1435.089063952383	665.309805764516	962.976085921008	1493.993423144185	490.004743528693	992.450882094058	942.459761064712	625.913138053807	963.475594201555	962.084488230527	353.082609555170	1012.730040459184	738.058280294754	595.855940357095	923.676663950828	633.441453084951	655.391249003652	995.849452456814	577.821843909414	574.643110424217	988.413955995784	490.755144225489	579.352022636520	1051.185671884991	795.085123336350	367.479174856959	1011.349798314672	667.680857934997	283.759663492007	1124.056319569296	613.374106801691	334.021222252482	1148.859744127137	532.555704674420	323.076017477853	1105.307763676173	455.582640432405	320.891763577036	987.679249504845	365.438990036591	275.270291794996	1025.096446543481	240.383094835666	330.236528619029	957.822419656101	403.184320983948	582.789736629603	879.928493636815	300.909815386128	639.352569731960	921.703734711841	206.201625551646	574.598495295541	783.120733658570	43.184095066861	535.987334087472	954.996359939506	96.979436401281	575.145890808726	865.270113448042	37.058237357898	611.284409284319	1073.905394049771	41.054042795232	605.070534922173	875.214341713572	105.811280873492	372.780635304570	941.383107923757	90.516551614236	287.961704984893	1035.824135082493	138.555646049434	306.945650440940	1149.635563528240	67.923525356504	269.098649011876	814.674750528181	1102.779827721346	238.629391181937	805.038245482935	843.370941396520	216.980788985823	1061.691235808342	1090.609515683221	784.776305314187	1268.949702650957	935.240294471944	751.915618038152	
